<?xml version="1.0" encoding="UTF-8"?>
<svg viewBox="0 0 940 560" preserveAspectRatio="xMidYMid meet" xmlns="http://www.w3.org/2000/svg" style="width:100%;height:auto;max-width:940px;">
<rect width="940" height="560" fill="#ffffff" />
<text x="470.0" y="26" font-size="15" font-weight="600" text-anchor="middle" fill="#1a1a1a" font-family="system-ui,Arial,sans-serif">Synthesized heartbreak recovery curves by gender and breakup type</text>
<rect x="70.0" y="70.0" width="640.0" height="400.0" fill="#ffffff" stroke="#e3e3e3" />
<line x1="70.0" y1="470.0" x2="710.0" y2="470.0" stroke="#eee" stroke-width="1" />
<text x="62.0" y="474.0" font-size="11" fill="#555" text-anchor="end" font-weight="normal" font-family="system-ui,Arial,sans-serif">0</text>
<line x1="70.0" y1="414.4" x2="710.0" y2="414.4" stroke="#eee" stroke-width="1" />
<text x="62.0" y="418.4" font-size="11" fill="#555" text-anchor="end" font-weight="normal" font-family="system-ui,Arial,sans-serif">15</text>
<line x1="70.0" y1="358.9" x2="710.0" y2="358.9" stroke="#eee" stroke-width="1" />
<text x="62.0" y="362.9" font-size="11" fill="#555" text-anchor="end" font-weight="normal" font-family="system-ui,Arial,sans-serif">30</text>
<line x1="70.0" y1="303.3" x2="710.0" y2="303.3" stroke="#eee" stroke-width="1" />
<text x="62.0" y="307.3" font-size="11" fill="#555" text-anchor="end" font-weight="normal" font-family="system-ui,Arial,sans-serif">45</text>
<line x1="70.0" y1="247.8" x2="710.0" y2="247.8" stroke="#eee" stroke-width="1" />
<text x="62.0" y="251.8" font-size="11" fill="#555" text-anchor="end" font-weight="normal" font-family="system-ui,Arial,sans-serif">60</text>
<line x1="70.0" y1="192.2" x2="710.0" y2="192.2" stroke="#eee" stroke-width="1" />
<text x="62.0" y="196.2" font-size="11" fill="#555" text-anchor="end" font-weight="normal" font-family="system-ui,Arial,sans-serif">75</text>
<line x1="70.0" y1="136.7" x2="710.0" y2="136.7" stroke="#eee" stroke-width="1" />
<text x="62.0" y="140.7" font-size="11" fill="#555" text-anchor="end" font-weight="normal" font-family="system-ui,Arial,sans-serif">90</text>
<line x1="70.0" y1="81.1" x2="710.0" y2="81.1" stroke="#eee" stroke-width="1" />
<text x="62.0" y="85.1" font-size="11" fill="#555" text-anchor="end" font-weight="normal" font-family="system-ui,Arial,sans-serif">105</text>
<line x1="81.9" y1="470.0" x2="81.9" y2="475.0" stroke="#999" stroke-width="1" />
<text x="81.9" y="490.0" font-size="11" fill="#555" text-anchor="middle" font-weight="normal" font-family="system-ui,Arial,sans-serif">0</text>
<line x1="147.0" y1="470.0" x2="147.0" y2="475.0" stroke="#999" stroke-width="1" />
<text x="147.0" y="490.0" font-size="11" fill="#555" text-anchor="middle" font-weight="normal" font-family="system-ui,Arial,sans-serif">11</text>
<line x1="235.9" y1="470.0" x2="235.9" y2="475.0" stroke="#999" stroke-width="1" />
<text x="235.9" y="490.0" font-size="11" fill="#555" text-anchor="middle" font-weight="normal" font-family="system-ui,Arial,sans-serif">26</text>
<line x1="390.0" y1="470.0" x2="390.0" y2="475.0" stroke="#999" stroke-width="1" />
<text x="390.0" y="490.0" font-size="11" fill="#555" text-anchor="middle" font-weight="normal" font-family="system-ui,Arial,sans-serif">52</text>
<line x1="544.1" y1="470.0" x2="544.1" y2="475.0" stroke="#999" stroke-width="1" />
<text x="544.1" y="490.0" font-size="11" fill="#555" text-anchor="middle" font-weight="normal" font-family="system-ui,Arial,sans-serif">78</text>
<line x1="698.1" y1="470.0" x2="698.1" y2="475.0" stroke="#999" stroke-width="1" />
<text x="698.1" y="490.0" font-size="11" fill="#555" text-anchor="middle" font-weight="normal" font-family="system-ui,Arial,sans-serif">104</text>
<text x="390.0" y="526.0" font-size="12" fill="#333" text-anchor="middle" font-weight="normal" font-family="system-ui,Arial,sans-serif">Weeks since breakup</text>
<text x="18.0" y="270.0" font-size="12" fill="#333" text-anchor="middle" font-weight="normal" font-family="system-ui,Arial,sans-serif" transform="rotate(-90 18.0 270.0)">Distress / longing intensity (0–100)</text>
<polyline points="81.9,136.7 83.9,149.3 86.0,161.5 88.0,173.2 90.1,184.3 92.1,195.1 94.2,205.3 96.2,215.2 98.3,224.7 100.3,233.7 102.4,242.4 104.4,250.8" fill="none" stroke="#d6336c" stroke-width="3" />
<polyline points="106.5,258.8 108.6,266.4 110.6,273.8 112.7,280.9 114.7,287.6 116.8,294.1 118.8,300.4 120.9,306.3 122.9,312.0 125.0,317.5 127.0,322.8 129.1,327.9 131.2,332.7 133.2,337.3 135.3,341.8 137.3,346.1 139.4,350.2 141.4,354.1 143.5,357.9 145.5,361.5 147.6,364.9 149.6,368.3 151.7,371.5 153.8,374.5 155.8,377.4 157.9,380.3 159.9,383.0 162.0,385.5 164.0,388.0 166.1,390.4 168.1,392.7 170.2,394.9 172.2,397.0 174.3,399.0 176.4,400.9 178.4,402.8 180.5,404.5 182.5,406.2 184.6,407.9 186.6,409.4 188.7,410.9 190.7,412.4 192.8,413.8 194.8,415.1 196.9,416.4 198.9,417.6 201.0,418.7 203.1,419.9 205.1,420.9 207.2,422.0 209.2,423.0 211.3,423.9 213.3,424.8 215.4,425.7 217.4,426.5 219.5,427.3 221.5,428.1 223.6,428.8 225.7,429.5 227.7,430.2 229.8,430.9 231.8,431.5 233.9,432.1 235.9,432.7 238.0,433.2 240.0,433.7 242.1,434.2 244.1,434.7 246.2,435.2 248.3,435.6 250.3,436.1 252.4,436.5 254.4,436.9 256.5,437.3 258.5,437.6 260.6,438.0 262.6,438.3 264.7,438.6 266.7,438.9 268.8,439.2 270.8,439.5 272.9,439.8 275.0,440.0 277.0,440.3 279.1,440.5 281.1,440.7 283.2,441.0 285.2,441.2 287.3,441.4 289.3,441.6 291.4,441.8 293.4,441.9 295.5,442.1 297.6,442.3 299.6,442.4 301.7,442.6 303.7,442.7 305.8,442.9 307.8,443.0 309.9,443.1 311.9,443.2 314.0,443.4 316.0,443.5 318.1,443.6 320.2,443.7 322.2,443.8 324.3,443.9 326.3,444.0 328.4,444.0 330.4,444.1 332.5,444.2 334.5,444.3 336.6,444.4 338.6,444.4 340.7,444.5 342.8,444.6 344.8,444.6 346.9,444.7 348.9,444.7 351.0,444.8 353.0,444.9 355.1,444.9 357.1,445.0 359.2,445.0 361.2,445.0 363.3,445.1 365.3,445.1 367.4,445.2 369.5,445.2 371.5,445.2 373.6,445.3 375.6,445.3 377.7,445.3 379.7,445.4 381.8,445.4 383.8,445.4 385.9,445.5 387.9,445.5 390.0,445.5 392.1,445.5 394.1,445.6 396.2,445.6 398.2,445.6 400.3,445.6 402.3,445.6 404.4,445.7 406.4,445.7 408.5,445.7 410.5,445.7 412.6,445.7 414.7,445.7 416.7,445.8 418.8,445.8 420.8,445.8 422.9,445.8 424.9,445.8 427.0,445.8 429.0,445.8 431.1,445.8 433.1,445.9 435.2,445.9 437.2,445.9 439.3,445.9 441.4,445.9 443.4,445.9 445.5,445.9 447.5,445.9 449.6,445.9 451.6,445.9 453.7,445.9 455.7,445.9 457.8,445.9 459.8,446.0 461.9,446.0 464.0,446.0 466.0,446.0 468.1,446.0 470.1,446.0 472.2,446.0 474.2,446.0 476.3,446.0 478.3,446.0 480.4,446.0 482.4,446.0 484.5,446.0 486.6,446.0 488.6,446.0 490.7,446.0 492.7,446.0 494.8,446.0 496.8,446.0 498.9,446.0 500.9,446.0 503.0,446.0 505.0,446.0 507.1,446.0 509.2,446.0 511.2,446.0 513.3,446.0 515.3,446.0 517.4,446.1 519.4,446.1 521.5,446.1 523.5,446.1 525.6,446.1 527.6,446.1 529.7,446.1 531.7,446.1 533.8,446.1 535.9,446.1 537.9,446.1 540.0,446.1 542.0,446.1 544.1,446.1 546.1,446.1 548.2,446.1 550.2,446.1 552.3,446.1 554.3,446.1 556.4,446.1 558.5,446.1 560.5,446.1 562.6,446.1 564.6,446.1 566.7,446.1 568.7,446.1 570.8,446.1 572.8,446.1 574.9,446.1 576.9,446.1 579.0,446.1 581.1,446.1 583.1,446.1 585.2,446.1 587.2,446.1 589.3,446.1 591.3,446.1 593.4,446.1 595.4,446.1 597.5,446.1 599.5,446.1 601.6,446.1 603.6,446.1 605.7,446.1 607.8,446.1 609.8,446.1 611.9,446.1 613.9,446.1 616.0,446.1 618.0,446.1 620.1,446.1 622.1,446.1 624.2,446.1 626.2,446.1 628.3,446.1 630.4,446.1 632.4,446.1 634.5,446.1 636.5,446.1 638.6,446.1 640.6,446.1 642.7,446.1 644.7,446.1 646.8,446.1 648.8,446.1 650.9,446.1 653.0,446.1 655.0,446.1 657.1,446.1 659.1,446.1 661.2,446.1 663.2,446.1 665.3,446.1 667.3,446.1 669.4,446.1 671.4,446.1 673.5,446.1 675.6,446.1 677.6,446.1 679.7,446.1 681.7,446.1 683.8,446.1 685.8,446.1 687.9,446.1 689.9,446.1 692.0,446.1 694.0,446.1 696.1,446.1 698.1,446.1" fill="none" stroke="#d6336c" stroke-width="2" stroke-dasharray="6,4" />
<circle cx="81.9" cy="136.7" r="4.5" fill="#d6336c" stroke="#d6336c" stroke-width="1.5" />
<circle cx="87.8" cy="173.7" r="4.5" fill="#d6336c" stroke="#d6336c" stroke-width="1.5" />
<circle cx="93.7" cy="207.0" r="4.5" fill="#d6336c" stroke="#d6336c" stroke-width="1.5" />
<circle cx="105.6" cy="258.9" r="4.5" fill="#d6336c" stroke="#d6336c" stroke-width="1.5" />
<circle cx="129.3" cy="329.3" r="4.5" fill="#ffffff" stroke="#d6336c" stroke-width="1.8" />
<circle cx="147.0" cy="362.6" r="4.5" fill="#ffffff" stroke="#d6336c" stroke-width="1.8" />
<circle cx="176.7" cy="395.9" r="4.5" fill="#ffffff" stroke="#d6336c" stroke-width="1.8" />
<circle cx="235.9" cy="429.3" r="4.5" fill="#ffffff" stroke="#d6336c" stroke-width="1.8" />
<circle cx="390.0" cy="444.1" r="4.5" fill="#ffffff" stroke="#d6336c" stroke-width="1.8" />
<circle cx="544.1" cy="447.8" r="4.5" fill="#ffffff" stroke="#d6336c" stroke-width="1.8" />
<circle cx="698.1" cy="451.5" r="4.5" fill="#ffffff" stroke="#d6336c" stroke-width="1.8" />
<polyline points="81.9,99.6 83.9,109.4 86.0,118.8 88.0,127.9 90.1,136.7 92.1,145.3 94.2,153.5 96.2,161.4 98.3,169.1 100.3,176.5 102.4,183.6 104.4,190.6 106.5,197.2 108.6,203.7 110.6,209.9 112.7,215.9 114.7,221.8 116.8,227.4 118.8,232.8 120.9,238.1 122.9,243.1 125.0,248.0 127.0,252.7 129.1,257.3 131.2,261.7 133.2,266.0 135.3,270.1 137.3,274.1 139.4,277.9 141.4,281.6 143.5,285.2 145.5,288.7 147.6,292.0 149.6,295.3 151.7,298.4 153.8,301.4 155.8,304.3 157.9,307.1 159.9,309.9 162.0,312.5 164.0,315.0 166.1,317.5 168.1,319.8 170.2,322.1 172.2,324.3 174.3,326.5 176.4,328.5 178.4,330.5 180.5,332.5 182.5,334.3 184.6,336.1 186.6,337.9 188.7,339.5 190.7,341.2 192.8,342.7 194.8,344.2 196.9,345.7 198.9,347.1 201.0,348.5 203.1,349.8 205.1,351.1 207.2,352.3 209.2,353.5 211.3,354.6 213.3,355.7 215.4,356.8 217.4,357.8 219.5,358.8 221.5,359.8 223.6,360.7 225.7,361.6 227.7,362.5 229.8,363.3 231.8,364.2 233.9,364.9 235.9,365.7 238.0,366.4 240.0,367.1 242.1,367.8 244.1,368.5 246.2,369.1 248.3,369.7 250.3,370.3 252.4,370.9 254.4,371.5 256.5,372.0 258.5,372.5 260.6,373.0 262.6,373.5 264.7,374.0 266.7,374.4 268.8,374.9 270.8,375.3 272.9,375.7 275.0,376.1 277.0,376.5 279.1,376.8 281.1,377.2 283.2,377.5 285.2,377.9 287.3,378.2 289.3,378.5 291.4,378.8 293.4,379.1 295.5,379.3 297.6,379.6 299.6,379.9 301.7,380.1 303.7,380.4 305.8,380.6 307.8,380.8 309.9,381.1 311.9,381.3 314.0,381.5 316.0,381.7 318.1,381.9 320.2,382.0 322.2,382.2 324.3,382.4 326.3,382.6 328.4,382.7 330.4,382.9 332.5,383.0 334.5,383.2 336.6,383.3 338.6,383.4 340.7,383.6 342.8,383.7 344.8,383.8 346.9,383.9 348.9,384.0 351.0,384.2 353.0,384.3 355.1,384.4 357.1,384.5 359.2,384.6 361.2,384.6 363.3,384.7 365.3,384.8 367.4,384.9 369.5,385.0 371.5,385.1 373.6,385.1 375.6,385.2 377.7,385.3 379.7,385.3 381.8,385.4 383.8,385.5 385.9,385.5 387.9,385.6 390.0,385.7 392.1,385.7 394.1,385.8 396.2,385.8 398.2,385.9 400.3,385.9 402.3,386.0 404.4,386.0 406.4,386.0 408.5,386.1 410.5,386.1 412.6,386.2 414.7,386.2 416.7,386.2 418.8,386.3 420.8,386.3 422.9,386.3 424.9,386.4 427.0,386.4 429.0,386.4 431.1,386.5 433.1,386.5 435.2,386.5 437.2,386.5 439.3,386.6 441.4,386.6 443.4,386.6 445.5,386.6 447.5,386.7 449.6,386.7 451.6,386.7 453.7,386.7 455.7,386.7 457.8,386.8 459.8,386.8 461.9,386.8 464.0,386.8 466.0,386.8 468.1,386.8 470.1,386.8 472.2,386.9 474.2,386.9 476.3,386.9 478.3,386.9 480.4,386.9 482.4,386.9 484.5,386.9 486.6,387.0 488.6,387.0 490.7,387.0 492.7,387.0 494.8,387.0 496.8,387.0 498.9,387.0 500.9,387.0 503.0,387.0 505.0,387.0 507.1,387.0 509.2,387.1 511.2,387.1 513.3,387.1 515.3,387.1 517.4,387.1 519.4,387.1 521.5,387.1 523.5,387.1 525.6,387.1 527.6,387.1 529.7,387.1 531.7,387.1 533.8,387.1 535.9,387.1 537.9,387.1 540.0,387.1 542.0,387.1 544.1,387.1 546.1,387.2 548.2,387.2 550.2,387.2 552.3,387.2 554.3,387.2 556.4,387.2 558.5,387.2 560.5,387.2 562.6,387.2 564.6,387.2 566.7,387.2 568.7,387.2 570.8,387.2 572.8,387.2 574.9,387.2 576.9,387.2 579.0,387.2 581.1,387.2 583.1,387.2 585.2,387.2 587.2,387.2 589.3,387.2 591.3,387.2 593.4,387.2 595.4,387.2 597.5,387.2 599.5,387.2 601.6,387.2 603.6,387.2 605.7,387.2 607.8,387.2 609.8,387.2 611.9,387.2 613.9,387.2 616.0,387.2 618.0,387.2 620.1,387.2 622.1,387.2 624.2,387.2 626.2,387.2 628.3,387.2 630.4,387.2 632.4,387.2 634.5,387.2 636.5,387.2 638.6,387.2 640.6,387.2 642.7,387.2 644.7,387.2 646.8,387.2 648.8,387.2 650.9,387.2 653.0,387.2 655.0,387.3 657.1,387.3 659.1,387.3 661.2,387.3 663.2,387.3 665.3,387.3 667.3,387.3 669.4,387.3 671.4,387.3 673.5,387.3 675.6,387.3 677.6,387.3 679.7,387.3 681.7,387.3 683.8,387.3 685.8,387.3 687.9,387.3 689.9,387.3 692.0,387.3 694.0,387.3 696.1,387.3 698.1,387.3" fill="none" stroke="#a61e4d" stroke-width="2" stroke-dasharray="6,4" />
<circle cx="81.9" cy="99.6" r="4.5" fill="#ffffff" stroke="#a61e4d" stroke-width="1.8" />
<circle cx="87.8" cy="129.3" r="4.5" fill="#ffffff" stroke="#a61e4d" stroke-width="1.8" />
<circle cx="93.7" cy="155.2" r="4.5" fill="#ffffff" stroke="#a61e4d" stroke-width="1.8" />
<circle cx="105.6" cy="199.6" r="4.5" fill="#ffffff" stroke="#a61e4d" stroke-width="1.8" />
<circle cx="129.3" cy="262.6" r="4.5" fill="#ffffff" stroke="#a61e4d" stroke-width="1.8" />
<circle cx="147.0" cy="292.2" r="4.5" fill="#ffffff" stroke="#a61e4d" stroke-width="1.8" />
<circle cx="176.7" cy="321.9" r="4.5" fill="#ffffff" stroke="#a61e4d" stroke-width="1.8" />
<circle cx="235.9" cy="355.2" r="4.5" fill="#ffffff" stroke="#a61e4d" stroke-width="1.8" />
<circle cx="390.0" cy="381.1" r="4.5" fill="#ffffff" stroke="#a61e4d" stroke-width="1.8" />
<circle cx="544.1" cy="392.2" r="4.5" fill="#ffffff" stroke="#a61e4d" stroke-width="1.8" />
<circle cx="698.1" cy="395.9" r="4.5" fill="#ffffff" stroke="#a61e4d" stroke-width="1.8" />
<polyline points="81.9,173.7 83.9,183.5 86.0,192.9 88.0,201.9 90.1,210.5 92.1,218.7 94.2,226.6 96.2,234.2 98.3,241.4 100.3,248.3 102.4,255.0 104.4,261.3" fill="none" stroke="#1c7ed6" stroke-width="3" />
<polyline points="106.5,267.4 108.6,273.3 110.6,278.8 112.7,284.2 114.7,289.3 116.8,294.2 118.8,298.9 120.9,303.4 122.9,307.8 125.0,311.9 127.0,315.8 129.1,319.6 131.2,323.3 133.2,326.7 135.3,330.1 137.3,333.3 139.4,336.3 141.4,339.2 143.5,342.0 145.5,344.7 147.6,347.3 149.6,349.8 151.7,352.1 153.8,354.4 155.8,356.5 157.9,358.6 159.9,360.6 162.0,362.5 164.0,364.3 166.1,366.1 168.1,367.7 170.2,369.3 172.2,370.9 174.3,372.3 176.4,373.7 178.4,375.1 180.5,376.4 182.5,377.6 184.6,378.8 186.6,379.9 188.7,381.0 190.7,382.0 192.8,383.0 194.8,384.0 196.9,384.9 198.9,385.8 201.0,386.6 203.1,387.4 205.1,388.2 207.2,388.9 209.2,389.6 211.3,390.3 213.3,390.9 215.4,391.6 217.4,392.1 219.5,392.7 221.5,393.3 223.6,393.8 225.7,394.3 227.7,394.8 229.8,395.2 231.8,395.6 233.9,396.1 235.9,396.5 238.0,396.9 240.0,397.2 242.1,397.6 244.1,397.9 246.2,398.2 248.3,398.6 250.3,398.8 252.4,399.1 254.4,399.4 256.5,399.7 258.5,399.9 260.6,400.2 262.6,400.4 264.7,400.6 266.7,400.8 268.8,401.0 270.8,401.2 272.9,401.4 275.0,401.6 277.0,401.7 279.1,401.9 281.1,402.1 283.2,402.2 285.2,402.4 287.3,402.5 289.3,402.6 291.4,402.7 293.4,402.9 295.5,403.0 297.6,403.1 299.6,403.2 301.7,403.3 303.7,403.4 305.8,403.5 307.8,403.6 309.9,403.7 311.9,403.7 314.0,403.8 316.0,403.9 318.1,404.0 320.2,404.0 322.2,404.1 324.3,404.2 326.3,404.2 328.4,404.3 330.4,404.3 332.5,404.4 334.5,404.4 336.6,404.5 338.6,404.5 340.7,404.6 342.8,404.6 344.8,404.7 346.9,404.7 348.9,404.7 351.0,404.8 353.0,404.8 355.1,404.8 357.1,404.9 359.2,404.9 361.2,404.9 363.3,405.0 365.3,405.0 367.4,405.0 369.5,405.0 371.5,405.1 373.6,405.1 375.6,405.1 377.7,405.1 379.7,405.1 381.8,405.2 383.8,405.2 385.9,405.2 387.9,405.2 390.0,405.2 392.1,405.2 394.1,405.3 396.2,405.3 398.2,405.3 400.3,405.3 402.3,405.3 404.4,405.3 406.4,405.3 408.5,405.3 410.5,405.4 412.6,405.4 414.7,405.4 416.7,405.4 418.8,405.4 420.8,405.4 422.9,405.4 424.9,405.4 427.0,405.4 429.0,405.4 431.1,405.4 433.1,405.4 435.2,405.4 437.2,405.5 439.3,405.5 441.4,405.5 443.4,405.5 445.5,405.5 447.5,405.5 449.6,405.5 451.6,405.5 453.7,405.5 455.7,405.5 457.8,405.5 459.8,405.5 461.9,405.5 464.0,405.5 466.0,405.5 468.1,405.5 470.1,405.5 472.2,405.5 474.2,405.5 476.3,405.5 478.3,405.5 480.4,405.5 482.4,405.5 484.5,405.5 486.6,405.5 488.6,405.5 490.7,405.5 492.7,405.5 494.8,405.5 496.8,405.5 498.9,405.6 500.9,405.6 503.0,405.6 505.0,405.6 507.1,405.6 509.2,405.6 511.2,405.6 513.3,405.6 515.3,405.6 517.4,405.6 519.4,405.6 521.5,405.6 523.5,405.6 525.6,405.6 527.6,405.6 529.7,405.6 531.7,405.6 533.8,405.6 535.9,405.6 537.9,405.6 540.0,405.6 542.0,405.6 544.1,405.6 546.1,405.6 548.2,405.6 550.2,405.6 552.3,405.6 554.3,405.6 556.4,405.6 558.5,405.6 560.5,405.6 562.6,405.6 564.6,405.6 566.7,405.6 568.7,405.6 570.8,405.6 572.8,405.6 574.9,405.6 576.9,405.6 579.0,405.6 581.1,405.6 583.1,405.6 585.2,405.6 587.2,405.6 589.3,405.6 591.3,405.6 593.4,405.6 595.4,405.6 597.5,405.6 599.5,405.6 601.6,405.6 603.6,405.6 605.7,405.6 607.8,405.6 609.8,405.6 611.9,405.6 613.9,405.6 616.0,405.6 618.0,405.6 620.1,405.6 622.1,405.6 624.2,405.6 626.2,405.6 628.3,405.6 630.4,405.6 632.4,405.6 634.5,405.6 636.5,405.6 638.6,405.6 640.6,405.6 642.7,405.6 644.7,405.6 646.8,405.6 648.8,405.6 650.9,405.6 653.0,405.6 655.0,405.6 657.1,405.6 659.1,405.6 661.2,405.6 663.2,405.6 665.3,405.6 667.3,405.6 669.4,405.6 671.4,405.6 673.5,405.6 675.6,405.6 677.6,405.6 679.7,405.6 681.7,405.6 683.8,405.6 685.8,405.6 687.9,405.6 689.9,405.6 692.0,405.6 694.0,405.6 696.1,405.6 698.1,405.6" fill="none" stroke="#1c7ed6" stroke-width="2" stroke-dasharray="6,4" />
<circle cx="81.9" cy="173.7" r="4.5" fill="#1c7ed6" stroke="#1c7ed6" stroke-width="1.5" />
<circle cx="87.8" cy="199.6" r="4.5" fill="#1c7ed6" stroke="#1c7ed6" stroke-width="1.5" />
<circle cx="93.7" cy="225.6" r="4.5" fill="#1c7ed6" stroke="#1c7ed6" stroke-width="1.5" />
<circle cx="105.6" cy="266.3" r="4.5" fill="#1c7ed6" stroke="#1c7ed6" stroke-width="1.5" />
<circle cx="129.3" cy="321.9" r="4.5" fill="#ffffff" stroke="#1c7ed6" stroke-width="1.8" />
<circle cx="147.0" cy="347.8" r="4.5" fill="#ffffff" stroke="#1c7ed6" stroke-width="1.8" />
<circle cx="176.7" cy="370.0" r="4.5" fill="#ffffff" stroke="#1c7ed6" stroke-width="1.8" />
<circle cx="235.9" cy="392.2" r="4.5" fill="#ffffff" stroke="#1c7ed6" stroke-width="1.8" />
<circle cx="390.0" cy="403.3" r="4.5" fill="#ffffff" stroke="#1c7ed6" stroke-width="1.8" />
<circle cx="544.1" cy="407.0" r="4.5" fill="#ffffff" stroke="#1c7ed6" stroke-width="1.8" />
<circle cx="698.1" cy="410.7" r="4.5" fill="#ffffff" stroke="#1c7ed6" stroke-width="1.8" />
<polyline points="81.9,136.7 83.9,144.1 86.0,151.2 88.0,158.1 90.1,164.7 92.1,171.0 94.2,177.1 96.2,182.9 98.3,188.6 100.3,194.0 102.4,199.2 104.4,204.2 106.5,209.0 108.6,213.6 110.6,218.1 112.7,222.4 114.7,226.5 116.8,230.4 118.8,234.2 120.9,237.9 122.9,241.4 125.0,244.8 127.0,248.0 129.1,251.2 131.2,254.2 133.2,257.0 135.3,259.8 137.3,262.5 139.4,265.1 141.4,267.5 143.5,269.9 145.5,272.2 147.6,274.4 149.6,276.5 151.7,278.5 153.8,280.5 155.8,282.3 157.9,284.1 159.9,285.9 162.0,287.5 164.0,289.1 166.1,290.7 168.1,292.2 170.2,293.6 172.2,295.0 174.3,296.3 176.4,297.5 178.4,298.8 180.5,299.9 182.5,301.1 184.6,302.1 186.6,303.2 188.7,304.2 190.7,305.1 192.8,306.1 194.8,307.0 196.9,307.8 198.9,308.6 201.0,309.4 203.1,310.2 205.1,310.9 207.2,311.6 209.2,312.3 211.3,312.9 213.3,313.6 215.4,314.2 217.4,314.7 219.5,315.3 221.5,315.8 223.6,316.3 225.7,316.8 227.7,317.3 229.8,317.8 231.8,318.2 233.9,318.6 235.9,319.0 238.0,319.4 240.0,319.8 242.1,320.2 244.1,320.5 246.2,320.8 248.3,321.2 250.3,321.5 252.4,321.8 254.4,322.0 256.5,322.3 258.5,322.6 260.6,322.8 262.6,323.1 264.7,323.3 266.7,323.5 268.8,323.7 270.8,324.0 272.9,324.2 275.0,324.3 277.0,324.5 279.1,324.7 281.1,324.9 283.2,325.0 285.2,325.2 287.3,325.4 289.3,325.5 291.4,325.6 293.4,325.8 295.5,325.9 297.6,326.0 299.6,326.2 301.7,326.3 303.7,326.4 305.8,326.5 307.8,326.6 309.9,326.7 311.9,326.8 314.0,326.9 316.0,327.0 318.1,327.0 320.2,327.1 322.2,327.2 324.3,327.3 326.3,327.3 328.4,327.4 330.4,327.5 332.5,327.5 334.5,327.6 336.6,327.7 338.6,327.7 340.7,327.8 342.8,327.8 344.8,327.9 346.9,327.9 348.9,328.0 351.0,328.0 353.0,328.1 355.1,328.1 357.1,328.1 359.2,328.2 361.2,328.2 363.3,328.3 365.3,328.3 367.4,328.3 369.5,328.4 371.5,328.4 373.6,328.4 375.6,328.4 377.7,328.5 379.7,328.5 381.8,328.5 383.8,328.5 385.9,328.6 387.9,328.6 390.0,328.6 392.1,328.6 394.1,328.7 396.2,328.7 398.2,328.7 400.3,328.7 402.3,328.7 404.4,328.7 406.4,328.8 408.5,328.8 410.5,328.8 412.6,328.8 414.7,328.8 416.7,328.8 418.8,328.8 420.8,328.8 422.9,328.9 424.9,328.9 427.0,328.9 429.0,328.9 431.1,328.9 433.1,328.9 435.2,328.9 437.2,328.9 439.3,328.9 441.4,328.9 443.4,329.0 445.5,329.0 447.5,329.0 449.6,329.0 451.6,329.0 453.7,329.0 455.7,329.0 457.8,329.0 459.8,329.0 461.9,329.0 464.0,329.0 466.0,329.0 468.1,329.0 470.1,329.0 472.2,329.0 474.2,329.0 476.3,329.0 478.3,329.0 480.4,329.0 482.4,329.1 484.5,329.1 486.6,329.1 488.6,329.1 490.7,329.1 492.7,329.1 494.8,329.1 496.8,329.1 498.9,329.1 500.9,329.1 503.0,329.1 505.0,329.1 507.1,329.1 509.2,329.1 511.2,329.1 513.3,329.1 515.3,329.1 517.4,329.1 519.4,329.1 521.5,329.1 523.5,329.1 525.6,329.1 527.6,329.1 529.7,329.1 531.7,329.1 533.8,329.1 535.9,329.1 537.9,329.1 540.0,329.1 542.0,329.1 544.1,329.1 546.1,329.1 548.2,329.1 550.2,329.1 552.3,329.1 554.3,329.1 556.4,329.1 558.5,329.1 560.5,329.1 562.6,329.1 564.6,329.1 566.7,329.1 568.7,329.1 570.8,329.1 572.8,329.1 574.9,329.1 576.9,329.1 579.0,329.1 581.1,329.1 583.1,329.1 585.2,329.1 587.2,329.1 589.3,329.1 591.3,329.1 593.4,329.1 595.4,329.1 597.5,329.1 599.5,329.1 601.6,329.1 603.6,329.1 605.7,329.1 607.8,329.1 609.8,329.1 611.9,329.1 613.9,329.1 616.0,329.1 618.0,329.1 620.1,329.1 622.1,329.1 624.2,329.1 626.2,329.1 628.3,329.1 630.4,329.1 632.4,329.1 634.5,329.1 636.5,329.1 638.6,329.1 640.6,329.1 642.7,329.1 644.7,329.1 646.8,329.1 648.8,329.1 650.9,329.1 653.0,329.1 655.0,329.1 657.1,329.1 659.1,329.1 661.2,329.1 663.2,329.1 665.3,329.1 667.3,329.1 669.4,329.1 671.4,329.1 673.5,329.1 675.6,329.1 677.6,329.1 679.7,329.1 681.7,329.1 683.8,329.1 685.8,329.1 687.9,329.1 689.9,329.1 692.0,329.1 694.0,329.1 696.1,329.1 698.1,329.1" fill="none" stroke="#0b4884" stroke-width="2" stroke-dasharray="6,4" />
<circle cx="81.9" cy="136.7" r="4.5" fill="#ffffff" stroke="#0b4884" stroke-width="1.8" />
<circle cx="87.8" cy="158.9" r="4.5" fill="#ffffff" stroke="#0b4884" stroke-width="1.8" />
<circle cx="93.7" cy="177.4" r="4.5" fill="#ffffff" stroke="#0b4884" stroke-width="1.8" />
<circle cx="105.6" cy="210.7" r="4.5" fill="#ffffff" stroke="#0b4884" stroke-width="1.8" />
<circle cx="129.3" cy="255.2" r="4.5" fill="#ffffff" stroke="#0b4884" stroke-width="1.8" />
<circle cx="147.0" cy="273.7" r="4.5" fill="#ffffff" stroke="#0b4884" stroke-width="1.8" />
<circle cx="176.7" cy="292.2" r="4.5" fill="#ffffff" stroke="#0b4884" stroke-width="1.8" />
<circle cx="235.9" cy="310.7" r="4.5" fill="#ffffff" stroke="#0b4884" stroke-width="1.8" />
<circle cx="390.0" cy="325.6" r="4.5" fill="#ffffff" stroke="#0b4884" stroke-width="1.8" />
<circle cx="544.1" cy="333.0" r="4.5" fill="#ffffff" stroke="#0b4884" stroke-width="1.8" />
<circle cx="698.1" cy="336.7" r="4.5" fill="#ffffff" stroke="#0b4884" stroke-width="1.8" />
<line x1="70.0" y1="358.9" x2="710.0" y2="358.9" stroke="#999" stroke-width="1" stroke-dasharray="2,3" />
<text x="706.0" y="354.9" font-size="9" fill="#777" text-anchor="end" font-weight="normal" font-family="system-ui,Arial,sans-serif">Indifference (30)</text>
<line x1="70.0" y1="414.4" x2="710.0" y2="414.4" stroke="#999" stroke-width="1" stroke-dasharray="2,3" />
<text x="706.0" y="410.4" font-size="9" fill="#777" text-anchor="end" font-weight="normal" font-family="system-ui,Arial,sans-serif">Cessation Of Attraction (15)</text>
<line x1="147.0" y1="70.0" x2="147.0" y2="470.0" stroke="#2f9e44" stroke-width="1" stroke-dasharray="2,3" />
<text x="143.0" y="76.0" font-size="8" fill="#2f9e44" text-anchor="end" font-weight="normal" font-family="system-ui,Arial,sans-serif" transform="rotate(-90 143.0 76.0)">11-week (~71% view ex positively)</text>
<line x1="158.9" y1="70.0" x2="158.9" y2="470.0" stroke="#2f9e44" stroke-width="1" stroke-dasharray="2,3" />
<text x="154.9" y="76.0" font-size="8" fill="#2f9e44" text-anchor="end" font-weight="normal" font-family="system-ui,Arial,sans-serif" transform="rotate(-90 154.9 76.0)">~3-month (depressive symptoms to baseline)</text>
<line x1="726.0" y1="76.0" x2="750.0" y2="76.0" stroke="#d6336c" stroke-width="3" />
<circle cx="738.0" cy="76.0" r="3.5" fill="#d6336c" />
<text x="756.0" y="80.0" font-size="11" fill="#333" text-anchor="start" font-weight="normal" font-family="system-ui,Arial,sans-serif">Women — non-betrayal</text>
<line x1="726.0" y1="98.0" x2="750.0" y2="98.0" stroke="#a61e4d" stroke-width="3" />
<line x1="726.0" y1="98.0" x2="750.0" y2="98.0" stroke="#a61e4d" stroke-width="3" stroke-dasharray="6,4" />
<text x="756.0" y="102.0" font-size="11" fill="#333" text-anchor="start" font-weight="normal" font-family="system-ui,Arial,sans-serif">Women — betrayal</text>
<line x1="726.0" y1="120.0" x2="750.0" y2="120.0" stroke="#1c7ed6" stroke-width="3" />
<circle cx="738.0" cy="120.0" r="3.5" fill="#1c7ed6" />
<text x="756.0" y="124.0" font-size="11" fill="#333" text-anchor="start" font-weight="normal" font-family="system-ui,Arial,sans-serif">Men — non-betrayal</text>
<line x1="726.0" y1="142.0" x2="750.0" y2="142.0" stroke="#0b4884" stroke-width="3" />
<line x1="726.0" y1="142.0" x2="750.0" y2="142.0" stroke="#0b4884" stroke-width="3" stroke-dasharray="6,4" />
<text x="756.0" y="146.0" font-size="11" fill="#333" text-anchor="start" font-weight="normal" font-family="system-ui,Arial,sans-serif">Men — betrayal</text>
<text x="470.0" y="526.0" font-size="9" fill="#888" text-anchor="middle" font-weight="normal" font-family="system-ui,Arial,sans-serif" font-style="italic">Synthesized: weeks 0–4 non-betrayal anchored to Sbarra &amp; Emery (2005); later points &amp; all betrayal curves</text>
<text x="470.0" y="538.0" font-size="9" fill="#888" text-anchor="middle" font-weight="normal" font-family="system-ui,Arial,sans-serif" font-style="italic">interpolated/derived from milestone + infidelity-PTSD literature — NOT direct measurements.</text>

</svg>
